Coordinates
version=1
nRows=22
nColumns=34
inDegrees=no

Units are S.I. units (second, meters, Newtons, ...)
If the header above contains a line with 'inDegrees', this indicates whether rotational values are in degrees (yes) or radians (no).

endheader
time	pelvis_tilt	pelvis_list	pelvis_rotation	pelvis_tx	pelvis_ty	pelvis_tz	hip_flexion_r	hip_adduction_r	hip_rotation_r	knee_angle_r	ankle_angle_r	subtalar_angle_r	mtp_angle_r	hip_flexion_l	hip_adduction_l	hip_rotation_l	knee_angle_l	ankle_angle_l	subtalar_angle_l	mtp_angle_l	lumbar_extension	lumbar_bending	lumbar_rotation	arm_flex_r	arm_add_r	arm_rot_r	elbow_flex_r	pro_sup_r	arm_flex_l	arm_add_l	arm_rot_l	elbow_flex_l	pro_sup_l
0.161	-0.0795295	0.0247042	0.347418	0.184133	0.974747	0.199729	0.714933	-0.353239	-0.133025	2.52651	0.0261431	-0.179617	0.431111	0.0296075	-0.02896	0.0123823	0.75407	0.628106	0.254704	0.492249	-0.247531	0.00348809	-0.374464	-0.515232	-0.253315	-0.000689285	0.57304	2.00933	0.390489	-0.339692	0.205413	1.44585	1.90329
0.162	-0.103313	-0.0157337	0.358719	0.226502	0.972197	0.197725	0.795282	-0.342384	-0.158285	2.49453	0.0315151	-0.168955	0.374236	0.0060461	-0.0815861	0.0189365	0.707789	0.609988	0.284507	0.54774	-0.186728	0.0420868	-0.38843	-0.590729	-0.27822	0.00582235	0.593722	1.98989	0.406239	-0.30667	0.175278	1.47576	1.92868
0.163	-0.104378	-0.0443418	0.336669	0.267276	0.971123	0.19741	0.863347	-0.310562	-0.159237	2.46041	0.0355684	-0.168808	0.386642	-0.0533039	-0.126379	-0.00618566	0.648953	0.570706	0.308334	0.56381	-0.164021	0.0742839	-0.37068	-0.66344	-0.306131	0.00891549	0.627069	2.00978	0.436837	-0.279296	0.152834	1.51824	1.92704
0.164	-0.12553	-0.0747154	0.326051	0.30852	0.968832	0.196192	0.94498	-0.297981	-0.170104	2.42309	0.0338321	-0.179202	0.465734	-0.0902818	-0.162839	-0.0191803	0.587889	0.52252	0.321365	0.627704	-0.115243	0.103732	-0.368603	-0.744471	-0.33052	0.00132255	0.663222	2.01966	0.456461	-0.250258	0.124538	1.55705	1.96021
0.165	-0.140975	-0.102963	0.307581	0.349816	0.966727	0.196321	1.02213	-0.266207	-0.176004	2.38324	0.0322454	-0.183783	0.460065	-0.138949	-0.197664	-0.0451942	0.517115	0.463092	0.336793	0.761429	-0.0759592	0.131793	-0.358791	-0.825354	-0.347865	-0.0258556	0.696112	2.07538	0.479436	-0.227979	0.103731	1.60163	1.97841
0.166	-0.160797	-0.126161	0.292116	0.390791	0.964644	0.196116	1.09703	-0.248342	-0.182345	2.34153	0.0359594	-0.192241	0.461823	-0.182049	-0.222673	-0.0662238	0.446572	0.381408	0.348772	0.829367	-0.0337075	0.154262	-0.35452	-0.908645	-0.362578	-0.048412	0.738461	2.07134	0.501702	-0.208582	0.0846738	1.64651	2.00228
0.167	-0.183401	-0.146389	0.277469	0.4317	0.962631	0.196441	1.17045	-0.233132	-0.188699	2.29627	0.0392437	-0.202268	0.46924	-0.218809	-0.243977	-0.0924985	0.378942	0.283836	0.358646	0.951529	0.0110217	0.172239	-0.35189	-0.990786	-0.370557	-0.084571	0.772176	2.1112	0.523354	-0.191312	0.0696157	1.6931	2.00812
0.168	-0.204515	-0.15838	0.263579	0.472549	0.960981	0.196355	1.23671	-0.225788	-0.189716	2.24821	0.0448299	-0.210876	0.484354	-0.256516	-0.253367	-0.110156	0.311259	0.161276	0.363638	1.01869	0.051561	0.182452	-0.349964	-1.07077	-0.37218	-0.12403	0.805707	2.132	0.546214	-0.175777	0.0557892	1.73742	2.02592
0.169	-0.224232	-0.165117	0.248755	0.513661	0.959629	0.196623	1.29688	-0.218889	-0.186931	2.19765	0.0514394	-0.225408	0.513887	-0.294554	-0.257088	-0.127678	0.244992	0.0263505	0.35058	1.0472	0.0886292	0.186675	-0.346669	-1.14746	-0.369161	-0.154939	0.844353	2.07965	0.570104	-0.164159	0.037879	1.77172	2.09577
0.17	-0.241881	-0.168958	0.235712	0.554674	0.958841	0.196839	1.34909	-0.213154	-0.184493	2.14212	0.0486865	-0.239943	0.506587	-0.332996	-0.255435	-0.12939	0.179033	-0.133804	0.322806	1.03935	0.122355	0.18851	-0.343934	-1.21679	-0.360856	-0.199725	0.868583	2.09928	0.592565	-0.152027	0.0298573	1.8171	2.09829
0.171	-0.255521	-0.174585	0.223806	0.595701	0.958229	0.197037	1.39132	-0.205693	-0.18583	2.08315	0.0526639	-0.257873	0.502848	-0.37116	-0.257413	-0.140236	0.123252	-0.273252	0.290011	0.945086	0.151302	0.193787	-0.340982	-1.28018	-0.34789	-0.244922	0.891916	2.0975	0.616788	-0.141088	0.0182035	1.85517	2.1391
0.172	-0.267849	-0.178177	0.212896	0.636089	0.958	0.196934	1.42563	-0.201851	-0.188655	2.02025	0.0665774	-0.275478	0.460365	-0.405693	-0.256404	-0.133301	0.0811072	-0.409346	0.242992	0.715546	0.175741	0.198093	-0.338806	-1.33448	-0.335646	-0.294472	0.906643	2.13405	0.638846	-0.131917	0.0166023	1.90983	2.10911
0.173	-0.275347	-0.182419	0.20345	0.676215	0.957912	0.197052	1.4493	-0.195574	-0.194758	1.95469	0.0751196	-0.305149	0.506549	-0.436909	-0.257822	-0.136239	0.0626185	-0.486469	0.191137	0.560394	0.192756	0.203664	-0.337309	-1.38084	-0.322372	-0.327814	0.929222	2.07615	0.66299	-0.126256	0.0132796	1.95371	2.12185
0.174	-0.281816	-0.183629	0.198904	0.715309	0.957577	0.196945	1.47063	-0.194564	-0.196843	1.89105	0.0918287	-0.318069	0.447859	-0.459531	-0.257417	-0.124349	0.0673584	-0.515854	0.137069	0.531601	0.205247	0.205671	-0.339332	-1.41638	-0.309401	-0.367902	0.93839	2.09056	0.688485	-0.122514	0.0148662	2.00081	2.11173
0.175	-0.28525	-0.180248	0.197247	0.754042	0.957403	0.196858	1.48542	-0.198515	-0.19696	1.82581	0.0951785	-0.333818	0.423932	-0.476473	-0.254294	-0.104907	0.0962508	-0.505496	0.0912431	0.546863	0.210349	0.202448	-0.342613	-1.44152	-0.297634	-0.39361	0.9496	2.04408	0.713262	-0.124045	0.0211333	2.04831	2.10928
0.176	-0.283119	-0.172991	0.195192	0.792724	0.957533	0.196876	1.49115	-0.200756	-0.194013	1.75948	0.101108	-0.343043	0.415058	-0.492136	-0.248243	-0.0823066	0.143685	-0.487575	0.0436568	0.52814	0.20623	0.196319	-0.344717	-1.45523	-0.287982	-0.423303	0.949792	2.04118	0.734767	-0.128361	0.036693	2.10443	2.04834
0.177	-0.275495	-0.16142	0.189379	0.830697	0.958217	0.196831	1.48652	-0.200197	-0.189039	1.68868	0.101521	-0.348217	0.4059	-0.508468	-0.235992	-0.0611713	0.203829	-0.457983	0.0109825	0.5346	0.190082	0.191169	-0.340669	-1.45913	-0.279397	-0.446031	0.95012	2.02691	0.756247	-0.135043	0.0408748	2.1474	2.05812
0.178	-0.277543	-0.150394	0.17765	0.868283	0.958612	0.197558	1.48626	-0.193857	-0.184153	1.61152	0.104397	-0.34625	0.397822	-0.50907	-0.221781	-0.0485795	0.275515	-0.427512	-0.00307434	0.530922	0.187483	0.180797	-0.331203	-1.46034	-0.274996	-0.461569	0.945529	2.03355	0.767837	-0.141056	0.0523764	2.18786	2.05937
0.179	-0.274349	-0.140146	0.168261	0.905937	0.959617	0.198379	1.47258	-0.186622	-0.181377	1.52926	0.1113	-0.336311	0.371442	-0.511228	-0.210064	-0.0372209	0.35091	-0.413023	-0.0122485	0.480092	0.170871	0.178586	-0.325445	-1.44462	-0.267921	-0.483535	0.935605	2.01807	0.7723	-0.155773	0.0473846	2.23087	2.11477
0.18	-0.268979	-0.136329	0.158573	0.943985	0.960627	0.198579	1.44902	-0.178589	-0.187999	1.44255	0.116495	-0.319421	0.336971	-0.515011	-0.204016	-0.0354414	0.42615	-0.411881	-0.0121762	0.44877	0.15966	0.183871	-0.312341	-1.43522	-0.256797	-0.505962	0.928528	2.02771	0.761986	-0.161688	0.054073	2.25849	2.12222
0.181	-0.2605	-0.133997	0.147389	0.981995	0.961873	0.199171	1.41771	-0.166987	-0.196285	1.35343	0.123331	-0.290892	0.331119	-0.520614	-0.199777	-0.041347	0.503748	-0.418271	-0.00806125	0.452248	0.143858	0.18994	-0.299684	-1.4211	-0.251097	-0.520158	0.927564	2.01694	0.748262	-0.167592	0.0604207	2.27985	2.13731
0.182	-0.252402	-0.132816	0.140075	1.02022	0.96322	0.199725	1.3824	-0.158768	-0.207789	1.26221	0.124563	-0.254633	0.327139	-0.523089	-0.198953	-0.0464461	0.584164	-0.425325	-0.00445241	0.453736	0.128052	0.19746	-0.291118	-1.40232	-0.245552	-0.536675	0.926069	2.02319	0.725218	-0.175054	0.0674984	2.29954	2.14154
